<?xml version="1.0" standalone="no"?>
<!DOCTYPE svg PUBLIC "-//W3C//DTD SVG 20010904//EN"
 "http://www.w3.org/TR/2001/REC-SVG-20010904/DTD/svg10.dtd">
<svg version="1.0" xmlns="http://www.w3.org/2000/svg"
 width="256.000000pt" height="192.000000pt" viewBox="0 0 256.000000 192.000000"
 preserveAspectRatio="xMidYMid meet">

<g transform="translate(0.000000,192.000000) scale(0.100000,-0.100000)"
fill="#000000" stroke="none">
<path d="M998 1743 c-19 -22 -43 -69 -52 -103 -4 -14 8 4 26 40 20 39 41 66
52 68 19 4 80 -48 118 -102 17 -23 18 -30 7 -37 -9 -6 -4 -7 16 -3 36 8 45 14
22 14 -9 0 -17 4 -17 9 0 18 -118 131 -137 131 -11 0 -27 -8 -35 -17z"/>
<path d="M1460 1691 c-36 -38 -74 -71 -85 -74 -13 -3 -9 -5 13 -6 17 0 32 4
32 10 0 18 112 129 131 129 26 0 57 -45 80 -119 26 -85 44 -203 35 -227 -6
-16 -10 -15 -28 14 -42 66 -28 21 33 -104 33 -71 63 -144 65 -162 5 -38 -17
-93 -71 -178 -21 -33 -29 -51 -18 -41 20 17 21 17 31 -10 6 -15 14 -41 18 -58
3 -16 8 -39 11 -50 5 -17 3 -18 -9 -8 -12 11 -15 8 -16 -20 -1 -17 -10 -59
-22 -91 -11 -33 -20 -67 -20 -78 0 -23 17 -24 22 -1 2 10 17 -13 36 -54 l33
-72 -21 -43 c-11 -24 -17 -34 -14 -23 10 29 17 85 11 85 -17 0 -53 -27 -49
-38 2 -7 -2 -10 -11 -6 -13 5 -13 11 -1 51 17 55 17 63 5 63 -6 0 -18 -25 -27
-55 -10 -30 -20 -53 -23 -51 -3 2 -7 -11 -8 -30 -1 -18 -14 -72 -29 -118 -24
-75 -26 -88 -15 -110 8 -15 10 -32 6 -43 -8 -16 -9 -15 -13 7 -6 39 -20 46
-19 9 2 -34 2 -34 -45 -37 -27 -2 -48 1 -48 6 0 6 -8 9 -17 8 -17 -1 -18 10
-14 138 2 76 7 150 11 165 l8 26 1 -27 c2 -45 20 -41 23 4 3 39 5 43 27 40 19
-2 22 2 18 18 -3 14 1 24 14 31 11 5 17 15 13 20 -4 7 -19 -1 -38 -18 -37 -33
-74 -55 -84 -50 -4 3 -17 -9 -30 -24 l-24 -29 26 10 c26 9 26 9 25 -38 -1 -48
-15 -157 -18 -135 -1 9 -8 10 -27 3 -33 -13 -80 -13 -105 0 -15 9 -19 7 -19
-5 0 -9 -4 -13 -10 -10 -16 10 -12 -28 6 -53 14 -20 14 -22 -4 -22 -10 0 -19
6 -19 13 0 6 -4 67 -8 135 -7 117 -7 122 11 116 12 -4 8 3 -11 19 -16 14 -32
21 -34 15 -2 -5 -16 3 -32 18 l-29 27 28 -51 c15 -28 30 -46 33 -40 11 18 20
-89 17 -197 l-3 -100 -27 0 c-16 1 -28 -3 -28 -8 0 -13 -91 -4 -106 11 -18 17
-17 23 1 49 14 20 14 30 -5 103 -28 110 -70 243 -76 238 -2 -3 3 -27 11 -54
12 -39 45 -169 45 -177 0 -1 -21 -2 -47 -2 -31 0 -53 6 -60 15 -24 28 -83 153
-83 174 0 25 45 124 68 149 15 17 16 17 30 -5 10 -17 12 -18 7 -4 -3 11 -11
50 -17 87 -10 58 -14 66 -27 56 -15 -13 -15 -16 5 93 4 24 4 24 -5 3 -6 -13
-13 -45 -17 -73 -6 -43 -4 -49 9 -45 26 11 33 -68 9 -102 -11 -16 -32 -52 -47
-82 -34 -68 -31 -101 19 -202 32 -65 35 -77 25 -101 -9 -22 -18 -28 -41 -28
-17 0 -27 4 -23 10 4 6 -7 10 -27 10 -59 1 -89 40 -84 111 1 24 10 57 20 72
10 15 16 30 13 34 -4 3 -18 -18 -31 -47 -48 -104 -3 -184 116 -206 18 -4 43
-16 55 -27 14 -12 42 -22 75 -25 39 -3 59 -11 75 -28 18 -20 32 -24 82 -24 49
0 65 4 89 25 27 22 39 25 112 25 74 0 85 -2 105 -24 44 -47 160 -42 183 8 7
16 22 26 49 31 20 4 46 11 55 16 21 12 23 48 4 74 -12 17 -10 27 19 85 52 101
52 109 10 199 -36 77 -37 81 -25 130 7 28 19 55 28 60 18 10 13 65 -14 147
-16 50 -16 52 8 90 14 21 33 60 43 87 17 45 17 49 0 95 -10 26 -30 72 -45 102
-23 47 -26 65 -23 120 5 79 -33 239 -72 306 -39 66 -64 61 -145 -25z m-470
-1384 c0 -1 4 -16 9 -33 10 -35 -13 -80 -28 -55 -6 9 -11 10 -15 2 -11 -17
-44 -13 -55 7 -7 11 -10 13 -11 3 0 -19 -30 6 -30 26 0 39 20 53 75 53 30 0
55 -1 55 -3z m654 -13 c9 -4 21 -16 27 -28 10 -20 10 -20 -5 -2 -9 11 -16 16
-16 12 0 -5 -8 -2 -17 5 -15 12 -16 12 -9 -6 16 -39 12 -50 -18 -53 -36 -4
-49 8 -41 41 8 31 43 45 79 31z"/>
<path d="M1247 1623 c18 -2 50 -2 70 0 21 2 7 4 -32 4 -38 0 -55 -2 -38 -4z"/>
<path d="M915 1541 c-9 -38 -15 -78 -12 -88 4 -14 5 -13 6 6 0 13 8 50 17 83
8 33 13 62 11 65 -3 2 -12 -27 -22 -66z"/>
<path d="M1521 1563 c12 -15 12 -16 -1 -8 -8 4 1 -8 19 -28 19 -21 36 -37 38
-37 7 0 -17 39 -27 45 -6 3 -10 15 -10 26 0 11 -7 19 -16 19 -14 0 -15 -2 -3
-17z"/>
<path d="M1001 1517 c-25 -39 -28 -47 -11 -32 32 29 62 73 53 78 -5 3 -23 -18
-42 -46z"/>
<path d="M891 1377 c0 -26 -8 -62 -17 -80 -9 -18 -11 -27 -5 -21 15 14 54 117
42 110 -5 -4 -12 4 -14 16 -2 13 -5 1 -6 -25z"/>
<path d="M1080 1360 c-21 -21 -26 -40 -11 -40 6 0 13 4 16 10 3 5 24 14 47 21
31 8 38 13 27 20 -24 15 -58 10 -79 -11z"/>
<path d="M1396 1373 c-4 -4 16 -18 45 -30 61 -27 76 -21 36 13 -27 23 -66 31
-81 17z"/>
<path d="M1193 1340 c-39 -16 -30 -59 22 -112 25 -25 45 -55 45 -67 0 -42
-107 -73 -159 -47 -29 16 -65 66 -56 80 3 3 -3 0 -12 -8 -13 -12 -14 -18 -4
-29 6 -8 25 -42 42 -76 18 -36 46 -72 67 -89 20 -15 51 -42 68 -59 20 -21 41
-33 58 -33 36 0 83 25 91 49 3 10 16 22 28 25 35 8 94 73 113 122 9 24 21 44
25 44 16 0 9 27 -11 45 -18 17 -19 16 -17 -11 2 -21 -6 -33 -32 -51 -42 -28
-91 -29 -148 -3 -55 24 -58 58 -9 85 10 6 32 29 48 51 32 45 30 70 -9 85 -30
11 -121 11 -150 -1z m57 -10 c0 -5 -10 -10 -22 -10 -19 0 -20 2 -8 10 19 13
30 13 30 0z m-82 -265 c-11 -25 -28 -34 -28 -15 0 6 5 10 11 10 6 0 9 7 5 15
-3 9 0 15 9 15 12 0 12 -5 3 -25z m240 14 c-2 -6 -8 -10 -13 -10 -5 0 -11 4
-13 10 -2 6 4 11 13 11 9 0 15 -5 13 -11z m-7 -50 c-11 -12 -24 -20 -27 -16
-4 4 4 15 17 26 31 25 37 19 10 -10z m-166 -11 c14 -6 25 -17 25 -25 0 -9 -6
-7 -20 7 -11 11 -26 17 -35 14 -8 -4 -15 -1 -15 5 0 14 13 14 45 -1z m115 -13
c0 -3 -6 -21 -14 -40 -11 -27 -22 -35 -49 -40 -19 -4 -44 -2 -55 4 -21 11 -48
71 -31 71 5 0 9 -8 9 -19 0 -23 25 -45 41 -35 8 4 9 3 5 -4 -10 -17 26 -15 49
2 23 17 31 56 10 56 -8 0 -12 -6 -9 -14 3 -8 1 -17 -4 -20 -6 -3 -13 2 -16 11
-4 9 -1 20 6 25 14 9 58 11 58 3z"/>
<path d="M830 1218 c-11 -24 -20 -56 -20 -72 0 -28 68 -181 77 -173 2 2 -12
37 -32 78 -40 84 -42 107 -15 167 10 23 17 42 14 42 -3 0 -14 -19 -24 -42z"/>
<path d="M866 945 c-9 -26 -7 -32 5 -12 6 10 9 21 6 23 -2 3 -7 -2 -11 -11z"/>
<path d="M1110 837 c0 -3 25 -14 55 -23 30 -10 51 -22 48 -27 -9 -15 93 -2
176 23 40 12 71 24 68 26 -3 3 -35 0 -72 -7 -65 -11 -207 -8 -252 6 -13 4 -23
5 -23 2z"/>
<path d="M1490 420 c0 -13 11 -13 30 0 12 8 11 10 -7 10 -13 0 -23 -4 -23 -10z"/>
</g>
</svg>
